<?xml version="1.0" standalone="no"?><!DOCTYPE svg PUBLIC "-//W3C//DTD SVG 1.1//EN" "http://www.w3.org/Graphics/SVG/1.1/DTD/svg11.dtd"><svg t="1724221972641" class="icon" viewBox="0 0 1024 1024" version="1.1" xmlns="http://www.w3.org/2000/svg" p-id="5929" width="13" height="13" xmlns:xlink="http://www.w3.org/1999/xlink"><path d="M122.88 347.87328l27.24864 11.37664V714.3424c51.712 0.1024 97.792 6.02112 138.27072 17.73568 40.47872 11.71456 106.8032 40.7552 199.0144 87.12192-107.25376-39.71072-181.41184-62.8224-222.47424-69.3248-41.0624-6.49216-88.4224-6.49216-142.05952 0V347.88352zM181.10464 204.8l306.30912 88.79104V779.4688c-69.7344-32.11264-126.8736-55.58272-171.43808-70.42048a745.18528 745.18528 0 0 0-134.87104-31.51872V204.8z m40.5504 340.70528c-2.1504 7.05536 1.78176 14.5408 8.76544 16.70144l195.584 60.74368a13.21984 13.21984 0 0 0 16.54784-8.84736 13.38368 13.38368 0 0 0-8.76544-16.70144l-195.57376-60.74368a13.21984 13.21984 0 0 0-16.54784 8.84736z m0-106.9056c-2.1504 7.04512 1.78176 14.52032 8.76544 16.6912l195.584 60.74368a13.21984 13.21984 0 0 0 16.54784-8.84736 13.38368 13.38368 0 0 0-8.76544-16.70144l-195.57376-60.73344a13.21984 13.21984 0 0 0-16.54784 8.83712z m0-106.92608c-2.1504 7.0656 1.78176 14.5408 8.76544 16.70144l195.584 60.74368a13.21984 13.21984 0 0 0 16.54784-8.84736 13.38368 13.38368 0 0 0-8.76544-16.6912l-195.57376-60.74368a13.21984 13.21984 0 0 0-16.54784 8.83712zM890.88 347.87328V749.8752c-53.63712-6.5024-100.98688-6.5024-142.05952 0-41.0624 6.49216-116.10112 29.5936-225.11616 69.31456 93.96224-46.36672 161.1776-75.40736 201.65632-87.12192 40.47872-11.71456 86.56896-17.62304 138.27072-17.73568V359.24992L890.88 347.87328z m-60.86656-138.62912v472.7296a745.18528 745.18528 0 0 0-134.87104 31.51872c-44.56448 14.83776-101.71392 38.2976-171.43808 70.42048V298.0352l306.30912-88.79104z m-40.56064 340.70528a13.21984 13.21984 0 0 0-16.55808-8.84736L577.3312 601.84576a13.38368 13.38368 0 0 0-8.76544 16.70144c2.1504 7.05536 9.56416 11.01824 16.54784 8.84736l195.57376-60.74368a13.38368 13.38368 0 0 0 8.76544-16.70144z m0-106.91584a13.21984 13.21984 0 0 0-16.55808-8.84736L577.3312 494.92992a13.38368 13.38368 0 0 0-8.76544 16.70144c2.1504 7.0656 9.56416 11.01824 16.54784 8.84736l195.57376-60.74368a13.38368 13.38368 0 0 0 8.76544-16.70144z m0-106.9056a13.21984 13.21984 0 0 0-16.55808-8.84736L577.3312 388.01408a13.38368 13.38368 0 0 0-8.76544 16.70144c2.1504 7.0656 9.56416 11.01824 16.54784 8.84736l195.57376-60.74368a13.38368 13.38368 0 0 0 8.76544-16.6912z" p-id="5930"></path></svg>