<?xml version="1.0" standalone="no"?><!DOCTYPE svg PUBLIC "-//W3C//DTD SVG 1.1//EN" "http://www.w3.org/Graphics/SVG/1.1/DTD/svg11.dtd"><svg t="1724222254829" class="icon" viewBox="0 0 1151 1024" version="1.1" xmlns="http://www.w3.org/2000/svg" p-id="10003" xmlns:xlink="http://www.w3.org/1999/xlink" width="17.984375" height="16"><path d="M874.505544 0a501.880122 501.880122 0 0 0-277.268199 85.977824v854.677166a502.785152 502.785152 0 0 1 554.618673 0V96.755906A467.571268 467.571268 0 0 0 874.505544 0z m191.948578 730.934919H682.392415v-42.947775h383.979431z m0-85.895549H682.392415v-43.03005h383.979431z m0-85.977824H682.392415v-43.112325h383.979431z m0-85.977824H682.392415v-43.03005h383.979431z m0-85.895549H682.392415v-43.194601h383.979431z m0-85.977824H682.392415v-43.276876h383.979431z m0-85.977824H682.392415v-43.194601h383.979431zM0 85.977824v854.677166a511.835449 511.835449 0 0 1 277.268199-83.345011 511.917725 511.917725 0 0 1 277.350474 83.345011V96.755906A467.90037 467.90037 0 0 0 277.268199 0 501.880122 501.880122 0 0 0 0 85.977824z m85.237345 86.0601H255.876587v214.985698H85.237345zM468.96995 730.934919H85.237345v-42.947775H468.96995z m0-85.895549H85.237345v-43.03005H468.96995z m0-85.977824H85.237345v-43.112325H468.96995z m0-86.389201H85.237345v-42.618673H468.96995zM298.65981 172.037924H468.96995v43.03005H298.65981z m0 85.895549H468.96995v43.030049H298.65981z m0 85.977824H468.96995v43.03005H298.65981z m341.278483 601.927045a533.06251 533.06251 0 0 1 468.969951 77.997107v-77.997107a499.658686 499.658686 0 0 0-468.969951 0.082275z m-597.237345 0v78.079383a532.897959 532.897959 0 0 1 468.96995-77.997108 499.494135 499.494135 0 0 0-468.96995 0z" fill="#dbdbdb" p-id="10004"></path></svg>