<?xml version="1.0" standalone="no"?><!DOCTYPE svg PUBLIC "-//W3C//DTD SVG 1.1//EN" "http://www.w3.org/Graphics/SVG/1.1/DTD/svg11.dtd"><svg t="1724222192120" class="icon" viewBox="0 0 1024 1024" version="1.1" xmlns="http://www.w3.org/2000/svg" p-id="7090" width="16" height="16" xmlns:xlink="http://www.w3.org/1999/xlink"><path d="M153.7024 836.4032L836.5056 153.6l33.9968 33.9968L187.6992 870.4zM811.52 282.624l-38.4 38.4a537.6 537.6 0 0 1 189.952 165.376 544.768 544.768 0 0 1-307.2 210.944A256 256 0 0 0 768 486.4a252.416 252.416 0 0 0-33.792-128l-37.888 38.4A204.8 204.8 0 0 1 716.8 486.4a204.8 204.8 0 0 1-204.8 204.8 196.096 196.096 0 0 1-88.064-20.992l-75.264 75.776A631.808 631.808 0 0 0 512 768a597.504 597.504 0 0 0 512-281.6 580.096 580.096 0 0 0-212.48-203.776zM285.184 668.16A536.064 536.064 0 0 1 60.928 486.4a544.768 544.768 0 0 1 307.2-210.944A256 256 0 0 0 256 486.4a252.416 252.416 0 0 0 54.272 156.672l36.864-36.352A200.704 200.704 0 0 1 307.2 486.4a204.8 204.8 0 0 1 204.8-204.8 200.704 200.704 0 0 1 120.32 39.936l36.352-36.864-11.776-9.216 16.384 5.12 40.448-40.96A609.28 609.28 0 0 0 512 204.8 597.504 597.504 0 0 0 0 486.4a586.24 586.24 0 0 0 246.784 220.672z" fill="#dbdbdb" p-id="7091"></path><path d="M409.6 486.4a105.472 105.472 0 0 0 11.264 46.08l137.216-137.216a105.472 105.472 0 0 0-46.08-11.264 102.4 102.4 0 0 0-102.4 102.4zM512 588.8a102.4 102.4 0 0 0 102.4-102.4v-5.632l-107.52 107.52z" fill="#dbdbdb" p-id="7092"></path></svg>